<svg width="96" height="41" viewBox="0 0 96 41" fill="none" xmlns="http://www.w3.org/2000/svg">
<path d="M38.832 20.084C38.832 19.876 38.832 19.6853 38.832 19.512C38.832 19.304 38.8147 19.096 38.78 18.888C38.7453 18.68 38.728 18.472 38.728 18.264C38.728 18.056 38.728 17.848 38.728 17.64C38.728 15.352 38.1387 13.2027 36.96 11.192C35.816 9.18133 34.3253 7.43066 32.488 5.94C30.6853 4.44933 28.6573 3.288 26.404 2.456C24.1853 1.58933 22.0013 1.156 19.852 1.156C18.9507 1.156 18.0147 1.17333 17.044 1.208C16.0733 1.24266 15.1373 1.27733 14.236 1.312C13.3 1.38133 12.364 1.45066 11.428 1.52C10.492 1.55467 9.53867 1.572 8.568 1.572C7.84 1.572 7.09467 1.55467 6.332 1.52C5.604 1.48533 4.85867 1.43333 4.096 1.364C3.50667 1.32933 2.88267 1.312 2.224 1.312C1.6 1.27733 0.976 1.26 0.352 1.26C0.144 1.26 0.0920001 1.34666 0.196 1.52C0.334667 1.76267 0.525333 1.91867 0.768 1.988C1.04533 2.05733 1.35733 2.12666 1.704 2.196C2.016 2.26533 2.328 2.33466 2.64 2.404C2.952 2.47333 3.22933 2.59467 3.472 2.768C3.74933 2.94133 3.95733 3.20133 4.096 3.548C4.26933 3.89466 4.356 4.36266 4.356 4.952V34.124C4.356 34.8867 4.32133 35.5453 4.252 36.1C4.18267 36.6547 4.02667 37.14 3.784 37.556C3.54133 37.9373 3.17733 38.2667 2.692 38.544C2.24133 38.8213 1.63467 39.0467 0.872 39.22C0.768 39.2547 0.716 39.3413 0.716 39.48C0.750667 39.584 0.82 39.636 0.924 39.636C2.34533 39.5667 3.76667 39.584 5.188 39.688C6.644 39.792 8.06533 39.896 9.452 40C10.6653 40.104 11.8787 40.1907 13.092 40.26C14.34 40.3293 15.5707 40.364 16.784 40.364C20.0773 40.364 23.076 39.9653 25.78 39.168C28.484 38.336 30.8067 37.088 32.748 35.424C34.6893 33.76 36.18 31.6627 37.22 29.132C38.2947 26.5667 38.832 23.5507 38.832 20.084ZM34.152 22.06C34.152 24.764 33.7187 27.1387 32.852 29.184C32.02 31.1947 30.824 32.876 29.264 34.228C27.7387 35.58 25.9013 36.6027 23.752 37.296C21.6027 37.9547 19.228 38.284 16.628 38.284C15.38 38.284 14.2707 38.232 13.3 38.128C12.364 37.9893 11.584 37.712 10.96 37.296C10.336 36.8453 9.868 36.2213 9.556 35.424C9.244 34.592 9.088 33.5 9.088 32.148V4.12C10.024 3.808 10.96 3.58266 11.896 3.444C12.832 3.30533 13.7853 3.236 14.756 3.236C17.5987 3.236 20.1987 3.66933 22.556 4.536C24.948 5.40267 26.9933 6.65067 28.692 8.28C30.4253 9.90933 31.76 11.8853 32.696 14.208C33.6667 16.5307 34.152 19.148 34.152 22.06ZM54.6445 21.176V20.76C54.4365 20.6907 54.0378 20.6387 53.4485 20.604C52.8591 20.5693 52.1658 20.552 51.3685 20.552C50.6058 20.5173 49.7738 20.5 48.8725 20.5C47.9711 20.5 47.1045 20.5 46.2725 20.5H42.0085C41.8698 20.5 41.8005 20.552 41.8005 20.656C41.6271 21.1413 41.4885 21.6613 41.3845 22.216C41.2805 22.7707 41.1938 23.3253 41.1245 23.88C41.1245 24.088 41.2111 24.1573 41.3845 24.088C42.5631 23.6373 43.7765 23.2907 45.0245 23.048C46.2725 22.8053 47.5031 22.5973 48.7165 22.424C49.7218 22.2507 50.7098 22.0773 51.6805 21.904C52.6858 21.696 53.6738 21.4533 54.6445 21.176ZM95.5534 39.792C95.6574 39.792 95.7094 39.7227 95.7094 39.584C95.7094 39.4453 95.6574 39.376 95.5534 39.376C94.3748 39.272 93.3521 38.9947 92.4854 38.544C91.6188 38.0587 90.8908 37.2787 90.3014 36.204C88.9841 33.708 87.7188 31.1253 86.5054 28.456C85.3268 25.752 84.1654 23.0133 83.0214 20.24C81.9121 17.4667 80.8374 14.6933 79.7974 11.92C78.7574 9.14667 77.7694 6.46 76.8334 3.86C76.6601 3.34 76.4694 2.82 76.2614 2.3C76.0534 1.78 75.8628 1.27733 75.6894 0.792C75.6548 0.687999 75.5854 0.635998 75.4814 0.635998C75.3774 0.635998 75.3081 0.687999 75.2734 0.792C74.3721 3.21867 73.4534 5.68 72.5174 8.176C71.6161 10.672 70.7321 13.1507 69.8654 15.612C68.6868 18.9747 67.5081 22.3027 66.3294 25.596C65.1508 28.8893 63.9028 32.1827 62.5854 35.476C62.1001 36.6893 61.3894 37.6253 60.4534 38.284C59.5521 38.9427 58.4254 39.376 57.0734 39.584C56.9694 39.6187 56.9174 39.7053 56.9174 39.844C56.9521 39.948 57.0214 40 57.1254 40C57.5068 39.9653 57.8708 39.948 58.2174 39.948C58.5988 39.9133 58.9801 39.8787 59.3614 39.844C59.9508 39.7747 60.5574 39.7227 61.1814 39.688C61.8054 39.6533 62.4294 39.636 63.0534 39.636C63.6428 39.636 64.2321 39.6533 64.8214 39.688C65.4108 39.7227 66.0001 39.7747 66.5894 39.844C66.8668 39.8787 67.1614 39.896 67.4734 39.896C67.7854 39.896 68.0801 39.9133 68.3574 39.948V39.532C68.0801 39.4973 67.7681 39.4627 67.4214 39.428C67.1094 39.3587 66.8148 39.2547 66.5374 39.116C66.2601 38.9773 66.0174 38.804 65.8094 38.596C65.6361 38.3533 65.5494 38.0587 65.5494 37.712C65.5494 37.192 65.7054 36.3427 66.0174 35.164C66.3641 33.9853 66.7454 32.7547 67.1614 31.472C67.6121 30.1547 68.0628 28.8893 68.5134 27.676C68.9641 26.4627 69.3108 25.5613 69.5534 24.972H80.5774C81.4094 27.1907 82.2588 29.4093 83.1254 31.628C83.9921 33.812 84.8414 36.0133 85.6734 38.232L82.8654 39.532C82.7614 39.6013 82.7268 39.7053 82.7614 39.844C82.7961 39.948 82.8654 39.9827 82.9694 39.948C83.1428 39.9133 83.3508 39.896 83.5934 39.896C83.8361 39.896 84.0441 39.8787 84.2174 39.844C85.0841 39.7747 85.9508 39.7227 86.8174 39.688C87.6841 39.6187 88.5508 39.584 89.4174 39.584C89.7641 39.584 90.1281 39.6013 90.5094 39.636C90.8908 39.6707 91.2548 39.7053 91.6014 39.74C92.0174 39.8093 92.4508 39.8613 92.9014 39.896C93.3868 39.896 93.8548 39.8787 94.3054 39.844L95.5534 39.792ZM79.6934 22.736H70.2294C70.9574 20.6907 71.6161 18.68 72.2054 16.704C72.8294 14.728 73.4881 12.7 74.1814 10.62C74.3201 10.1693 74.4588 9.71867 74.5974 9.268C74.7708 8.78267 74.9441 8.29733 75.1174 7.812L79.6934 22.736Z" fill="#FBFBFB"/>
</svg>
