<svg width="706" height="154" viewBox="0 0 706 154" fill="none" xmlns="http://www.w3.org/2000/svg">
<path d="M150 75.6C150 73.3333 150 70.8667 150 68.2C150 65.4 149.867 62.7333 149.6 60.2C149.2 55.2667 147.733 50.4 145.2 45.6C142.667 40.8 139.467 36.2667 135.6 32C131.867 27.7333 127.533 23.8667 122.6 20.4C117.667 16.8 112.533 13.7333 107.2 11.2C102 8.53332 96.7333 6.46666 91.4 5C86.2 3.53333 81.2667 2.79999 76.6 2.79999C73.2667 2.79999 69.7333 2.86666 66 2.99999C62.2667 2.99999 58.6667 3.13332 55.2 3.39999C51.4667 3.66666 47.8667 3.93332 44.4 4.2C40.9333 4.33333 37.4 4.39999 33.8 4.39999C30.8667 4.39999 28 4.33333 25.2 4.2C22.5333 4.06666 19.7333 3.86666 16.8 3.59999C14.5333 3.46666 12.2 3.33333 9.8 3.2C7.4 3.06666 5 2.99999 2.6 2.99999C1.8 2.99999 1.13333 3.26665 0.6 3.79999C0.2 4.33332 0.2 4.93332 0.6 5.59999C1 6.66666 1.8 7.39999 3 7.8C4.2 8.06666 5.6 8.33333 7.2 8.6C8.13333 8.73333 9.13333 8.93333 10.2 9.19999C11.2667 9.46666 12.2667 9.93333 13.2 10.6C14.1333 11.2667 14.8667 12.2 15.4 13.4C16.0667 14.6 16.4 16.2 16.4 18.2V128.8C16.4 131.733 16.2667 134.267 16 136.4C15.7333 138.4 15.1333 140.133 14.2 141.6C13.4 142.933 12.2 144.067 10.6 145C9 145.933 6.86667 146.667 4.2 147.2C2.86667 147.467 2.26667 148.133 2.4 149.2C2.66667 150.267 3.46667 150.8 4.8 150.8C10.1333 150.533 15.4667 150.6 20.8 151C26.2667 151.267 31.6667 151.6 37 152C41.5333 152.4 46.1333 152.733 50.8 153C55.4667 153.267 60.1333 153.4 64.8 153.4C77.6 153.4 89.2 151.867 99.6 148.8C110.133 145.6 119.133 140.8 126.6 134.4C134.067 128 139.8 119.933 143.8 110.2C147.933 100.467 150 88.9333 150 75.6ZM129.2 83C129.2 93.1333 127.6 102 124.4 109.6C121.2 117.2 116.733 123.533 111 128.6C105.4 133.533 98.6 137.267 90.6 139.8C82.6 142.333 73.8 143.6 64.2 143.6C60.6 143.6 56.5333 143.267 52 142.6C47.6 141.8 43.8667 140.333 40.8 138.2C40.1333 137.667 39.5333 136.667 39 135.2C38.6 133.733 38.2667 132.2 38 130.6C37.7333 128.867 37.5333 127.133 37.4 125.4C37.4 123.667 37.4 122.267 37.4 121.2V15.4C40.6 14.3333 43.8 13.6 47 13.2C50.3333 12.8 53.7333 12.6 57.2 12.6C67.7333 12.6 77.4 14.2667 86.2 17.6C95.1333 20.9333 102.733 25.6667 109 31.8C115.4 37.8 120.333 45.1333 123.8 53.8C127.4 62.4667 129.2 72.2 129.2 83ZM290.352 89.2C290.352 80.9333 288.618 73.0667 285.152 65.6C281.818 58.1333 277.285 51.6 271.552 46C265.818 40.4 259.152 35.9333 251.552 32.6C244.085 29.2667 236.218 27.6 227.952 27.6C219.552 27.6 211.285 28.8667 203.152 31.4C195.152 33.9333 187.952 37.6667 181.552 42.6C175.285 47.4 170.152 53.3333 166.152 60.4C162.285 67.4667 160.352 75.5333 160.352 84.6C160.352 92.8667 162.152 100.6 165.752 107.8C169.352 114.867 174.085 121 179.952 126.2C185.818 131.4 192.552 135.533 200.152 138.6C207.885 141.533 215.752 143 223.752 143C231.752 143 239.685 141.867 247.552 139.6C255.552 137.333 262.685 133.933 268.952 129.4C275.352 124.867 280.485 119.267 284.352 112.6C288.352 105.8 290.352 98 290.352 89.2ZM272.552 88.8C272.552 95.6 271.485 101.867 269.352 107.6C267.218 113.2 264.152 118.067 260.152 122.2C256.285 126.2 251.552 129.333 245.952 131.6C240.485 133.733 234.352 134.8 227.552 134.8C220.218 134.8 213.552 133.4 207.552 130.6C201.552 127.667 196.352 123.8 191.952 119C187.685 114.067 184.352 108.4 181.952 102C179.552 95.6 178.352 88.8667 178.352 81.8C178.352 74.8667 179.485 68.6667 181.752 63.2C184.018 57.6 187.152 52.8667 191.152 49C195.285 45 200.152 41.9333 205.752 39.8C211.485 37.6667 217.685 36.6 224.352 36.6C231.552 36.6 238.085 38 243.952 40.8C249.952 43.6 255.018 47.4 259.152 52.2C263.418 57 266.685 62.6 268.952 69C271.352 75.2667 272.552 81.8667 272.552 88.8ZM392.867 35.2V32C392.867 30.5333 392.001 29.9333 390.267 30.2C389.467 30.3333 388.734 30.4667 388.067 30.6C387.401 30.6 386.867 30.7333 386.467 31H386.667C385.601 31.2667 384.534 31.5333 383.467 31.8C382.401 32.0667 381.534 32.2 380.867 32.2H309.467C308.667 32.2 307.601 32.1333 306.267 32C305.067 31.7333 303.801 31.4667 302.467 31.2C301.134 30.9333 299.801 30.6667 298.467 30.4C297.267 30 296.401 29.6 295.867 29.2C295.201 28.9333 294.534 28.9333 293.867 29.2C293.201 29.3333 292.734 29.7333 292.467 30.4C292.201 31.2 291.934 32 291.667 32.8C291.534 33.6 291.334 34.3333 291.067 35C290.401 37 289.734 39.1333 289.067 41.4C288.401 43.6667 288.067 45.6667 288.067 47.4C288.067 48.7333 288.134 49.6 288.267 50C288.534 50.8 289.201 51.2667 290.267 51.4C291.334 51.5333 292.134 51.2 292.667 50.4C294.134 47.7333 296.067 45.4667 298.467 43.6C301.001 41.7333 303.734 40.8 306.667 40.8H332.067V125C332.067 127.4 331.934 129.333 331.667 130.8C331.401 132.133 330.934 133.2 330.267 134C329.601 134.8 328.601 135.4 327.267 135.8C325.934 136.067 324.267 136.333 322.267 136.6C321.067 136.867 320.467 137.533 320.467 138.6C320.601 139.667 321.267 140.2 322.467 140.2C329.267 140.467 336.001 140.667 342.667 140.8C349.467 140.933 356.267 141 363.067 141C364.134 141 364.867 140.733 365.267 140.2C365.667 139.667 365.667 139.067 365.267 138.4C364.734 137.333 363.801 136.667 362.467 136.4C361.267 136.133 359.934 135.933 358.467 135.8C357.667 135.667 356.667 135.533 355.467 135.4C354.401 135.267 353.601 135.067 353.067 134.8H352.867C352.601 134.667 352.334 134.133 352.067 133.2C351.801 132.133 351.534 131 351.267 129.8C351.134 128.467 350.934 127.267 350.667 126.2C350.534 125 350.467 124.2 350.467 123.8V41C351.401 41.2667 351.934 41.3333 352.067 41.2C352.334 41.0667 353.001 41 354.067 41C355.401 41 356.734 41 358.067 41C359.401 41 360.667 40.9333 361.867 40.8C363.067 40.6667 364.201 40.6 365.267 40.6C366.334 40.6 367.401 40.6 368.467 40.6C372.734 40.6 376.534 41.2667 379.867 42.6C383.334 43.8 385.534 46.7333 386.467 51.4C386.734 52.3333 387.467 52.8 388.667 52.8C390.001 52.8 390.801 52.3333 391.067 51.4C392.267 46.0667 392.867 40.6667 392.867 35.2ZM524.233 151.8V148.2C520.366 147.933 516.699 147 513.233 145.4C509.899 143.8 507.299 141.067 505.433 137.2C502.633 131.2 499.766 124.867 496.833 118.2C494.033 111.4 491.233 104.467 488.433 97.4C485.633 90.3333 482.899 83.3333 480.233 76.4C477.699 69.4667 475.233 62.8 472.833 56.4C471.099 51.7333 469.233 47.2 467.233 42.8C465.366 38.4 463.633 34.0667 462.033 29.8C461.766 29.2667 461.499 28.6 461.233 27.8C461.099 27 460.766 26.2 460.233 25.4C458.766 21.2667 457.099 16.8 455.233 12C453.366 7.19999 451.299 3.53332 449.033 0.999989C448.499 0.333323 447.899 0.199991 447.233 0.599994C446.566 0.999997 446.099 1.46666 445.833 1.99999C440.899 14.9333 436.033 27.8 431.233 40.6C426.433 53.4 421.699 66.2667 417.033 79.2C413.833 88 410.633 97.0667 407.433 106.4C404.366 115.6 401.099 124.6 397.633 133.4C396.966 135 396.033 136.733 394.833 138.6C393.766 140.333 392.433 142 390.833 143.6C389.366 145.067 387.766 146.333 386.033 147.4C384.433 148.333 382.766 148.8 381.033 148.8C380.899 148.8 380.499 148.8 379.833 148.8C379.299 148.667 378.899 148.8 378.633 149.2C378.099 149.733 377.966 150.267 378.233 150.8C378.366 151.067 378.566 151.333 378.833 151.6C379.099 151.867 379.233 152 379.233 152L420.833 152.2C422.166 152.2 422.833 151.733 422.833 150.8C422.966 149.733 422.366 149.067 421.033 148.8C419.033 148.533 416.966 148.067 414.833 147.4C412.833 146.6 411.833 145.067 411.833 142.8C411.833 141.067 412.366 138.067 413.433 133.8C414.633 129.4 416.033 124.8 417.633 120C419.233 115.067 420.833 110.333 422.433 105.8C424.166 101.133 425.566 97.6 426.633 95.2H466.033C469.099 103.6 472.233 112 475.433 120.4C478.766 128.8 482.033 137.2 485.233 145.6L478.233 149.2C477.433 149.867 477.233 150.467 477.633 151C478.033 151.533 478.766 151.867 479.833 152C482.633 152.267 486.099 152.333 490.233 152.2C494.366 152.067 497.899 152 500.833 152C504.833 152 508.766 152 512.633 152C516.499 152.133 520.366 152.067 524.233 151.8ZM462.033 84.6H429.833C432.766 76.2 435.433 68.2 437.833 60.6C440.366 52.8667 442.966 44.8 445.633 36.4L462.033 84.6ZM570.93 138C569.863 137.067 568.73 136.533 567.53 136.4C566.463 136.133 565.196 136 563.73 136C563.063 136 562.33 135.933 561.53 135.8C560.73 135.667 560.13 135.533 559.73 135.4C559.463 135 559.13 134.267 558.73 133.2C558.33 132.133 557.996 131 557.73 129.8C557.463 128.6 557.196 127.467 556.93 126.4C556.796 125.333 556.73 124.533 556.73 124V43.2C556.73 40 557.663 38 559.53 37.2C561.396 36.4 563.663 35.8 566.33 35.4C567.53 35.1333 568.063 34.5333 567.93 33.6C567.93 32.6667 567.33 32.1333 566.13 32C563.063 31.7333 560.063 31.7333 557.13 32C554.196 32.2667 551.196 32.4 548.13 32.4C545.063 32.4 541.93 32.2667 538.73 32C535.53 31.7333 532.33 31.7333 529.13 32C527.796 32.1333 527.063 32.7333 526.93 33.8C526.93 34.7333 527.596 35.2667 528.93 35.4C531.33 35.6667 533.596 36.4 535.73 37.6C537.996 38.6667 539.13 40.5333 539.13 43.2V124.6C539.13 125.667 538.996 126.867 538.73 128.2C538.596 129.533 538.33 130.867 537.93 132.2C537.53 133.533 536.93 134.667 536.13 135.6C535.463 136.4 534.596 136.8 533.53 136.8C533.263 136.8 532.863 136.933 532.33 137.2C531.93 137.333 531.396 137.267 530.73 137C529.53 136.733 528.663 137.267 528.13 138.6C527.596 139.8 527.93 140.6 529.13 141C530.063 141.4 531.33 141.667 532.93 141.8C534.663 141.8 536.396 141.733 538.13 141.6C539.996 141.467 541.73 141.333 543.33 141.2C544.93 141.067 546.263 141 547.33 141L554.93 141.2C557.463 141.333 559.863 141.333 562.13 141.2C564.53 141.067 566.93 141.067 569.33 141.2L570.93 138ZM705.441 140.2L704.241 136.8C700.241 137.333 696.241 136.667 692.241 134.8C688.241 132.8 684.307 130.2 680.441 127C676.574 123.8 672.841 120.2 669.241 116.2C665.641 112.2 662.241 108.267 659.041 104.4C657.041 102 655.041 99.7333 653.041 97.6C651.174 95.3333 649.241 93.2 647.241 91.2C649.507 89.2 651.707 87 653.841 84.6C656.107 82.0667 658.107 79.4 659.841 76.6C661.707 73.8 663.174 70.8667 664.241 67.8C665.441 64.7333 666.041 61.6667 666.041 58.6C666.041 52.4667 664.574 47.6 661.641 44C658.841 40.4 655.241 37.6667 650.841 35.8C646.441 33.9333 641.507 32.7333 636.041 32.2C630.707 31.6667 625.574 31.4 620.641 31.4C619.174 31.4 617.774 31.4667 616.441 31.6C615.241 31.6 613.974 31.6 612.641 31.6H608.441C606.307 31.6 604.307 31.6 602.441 31.6C600.574 31.6 598.574 31.5333 596.441 31.4C594.841 31.2667 593.241 31.2 591.641 31.2C590.041 31.2 588.507 31.2 587.041 31.2H584.041C582.974 31.2 582.241 31.4667 581.841 32C581.441 32.5333 581.507 33.1333 582.041 33.8C582.707 34.8667 583.574 35.5333 584.641 35.8C585.707 36.0667 586.974 36.2667 588.441 36.4C589.907 36.5333 591.307 36.9333 592.641 37.6C594.107 38.2667 594.841 40.2 594.841 43.4V124.6C594.841 127.133 594.707 129.2 594.441 130.8C594.307 132.267 593.907 133.4 593.241 134.2C592.574 135 591.574 135.6 590.241 136C589.041 136.267 587.374 136.533 585.241 136.8C584.041 137.067 583.441 137.733 583.441 138.8C583.574 139.733 584.241 140.267 585.441 140.4C592.241 140.8 598.974 141.067 605.641 141.2C612.441 141.2 619.241 141.2 626.041 141.2C627.241 141.2 628.041 140.8 628.441 140C628.841 139.2 628.507 138.533 627.441 138C626.374 137.2 625.174 136.733 623.841 136.6C622.641 136.333 621.441 136.133 620.241 136C619.574 135.867 618.774 135.8 617.841 135.8C617.041 135.8 616.441 135.667 616.041 135.4C615.774 135.267 615.441 134.733 615.041 133.8C614.774 132.733 614.507 131.6 614.241 130.4C613.974 129.067 613.707 127.867 613.441 126.8C613.307 125.6 613.241 124.733 613.241 124.2V97.8C614.307 97.6667 614.974 97.6667 615.241 97.8C615.641 97.8 616.374 97.8 617.441 97.8C620.374 97.8 623.574 98.0667 627.041 98.6C630.641 99 633.574 100.2 635.841 102.2C638.374 104.333 640.774 106.733 643.041 109.4C645.307 112.067 647.574 114.867 649.841 117.8C652.374 121 654.974 124.133 657.641 127.2C660.307 130.267 663.174 133 666.241 135.4C669.307 137.8 672.707 139.733 676.441 141.2C680.174 142.667 684.374 143.4 689.041 143.4C694.907 143.4 700.374 142.333 705.441 140.2ZM647.241 66C647.241 72.8 645.574 78.2 642.241 82.2C638.907 86.2 633.974 88.2 627.441 88.2C625.174 88.2 622.774 88.1333 620.241 88C617.841 87.8667 615.507 87.6667 613.241 87.4V39.2C616.174 38.4 619.241 38 622.441 38C626.174 38 629.574 38.8 632.641 40.4C635.707 41.8667 638.307 43.8667 640.441 46.4C642.707 48.9333 644.374 51.9333 645.441 55.4C646.641 58.7333 647.241 62.2667 647.241 66Z" fill="#FEE105"/>
</svg>
