<svg width="213" height="47" viewBox="0 0 213 47" fill="none" xmlns="http://www.w3.org/2000/svg">
<path d="M45.5 23.08C45.5 22.4 45.5 21.66 45.5 20.86C45.5 20.02 45.46 19.22 45.38 18.46C45.26 16.98 44.82 15.52 44.06 14.08C43.3 12.64 42.34 11.28 41.18 10C40.06 8.72 38.76 7.56 37.28 6.52C35.8 5.44 34.26 4.52 32.66 3.76C31.1 2.96 29.52 2.34 27.92 1.9C26.36 1.46 24.88 1.24 23.48 1.24C22.48 1.24 21.42 1.26 20.3 1.3C19.18 1.3 18.1 1.34 17.06 1.42C15.94 1.5 14.86 1.58 13.82 1.66C12.78 1.7 11.72 1.72 10.64 1.72C9.76 1.72 8.9 1.7 8.06 1.66C7.26 1.62 6.42 1.56 5.54 1.48C4.86 1.44 4.16 1.4 3.44 1.36C2.72 1.32 2 1.3 1.28 1.3C1.04 1.3 0.84 1.38 0.68 1.54C0.56 1.7 0.56 1.88 0.68 2.08C0.8 2.4 1.04 2.62 1.4 2.74C1.76 2.82 2.18 2.9 2.66 2.98C2.94 3.02 3.24 3.08 3.56 3.16C3.88 3.24 4.18 3.38 4.46 3.58C4.74 3.78 4.96 4.06 5.12 4.42C5.32 4.78 5.42 5.26 5.42 5.86V39.04C5.42 39.92 5.38 40.68 5.3 41.32C5.22 41.92 5.04 42.44 4.76 42.88C4.52 43.28 4.16 43.62 3.68 43.9C3.2 44.18 2.56 44.4 1.76 44.56C1.36 44.64 1.18 44.84 1.22 45.16C1.3 45.48 1.54 45.64 1.94 45.64C3.54 45.56 5.14 45.58 6.74 45.7C8.38 45.78 10 45.88 11.6 46C12.96 46.12 14.34 46.22 15.74 46.3C17.14 46.38 18.54 46.42 19.94 46.42C23.78 46.42 27.26 45.96 30.38 45.04C33.54 44.08 36.24 42.64 38.48 40.72C40.72 38.8 42.44 36.38 43.64 33.46C44.88 30.54 45.5 27.08 45.5 23.08ZM39.26 25.3C39.26 28.34 38.78 31 37.82 33.28C36.86 35.56 35.52 37.46 33.8 38.98C32.12 40.46 30.08 41.58 27.68 42.34C25.28 43.1 22.64 43.48 19.76 43.48C18.68 43.48 17.46 43.38 16.1 43.18C14.78 42.94 13.66 42.5 12.74 41.86C12.54 41.7 12.36 41.4 12.2 40.96C12.08 40.52 11.98 40.06 11.9 39.58C11.82 39.06 11.76 38.54 11.72 38.02C11.72 37.5 11.72 37.08 11.72 36.76V5.02C12.68 4.7 13.64 4.48 14.6 4.36C15.6 4.24 16.62 4.18 17.66 4.18C20.82 4.18 23.72 4.68 26.36 5.68C29.04 6.68 31.32 8.1 33.2 9.94C35.12 11.74 36.6 13.94 37.64 16.54C38.72 19.14 39.26 22.06 39.26 25.3ZM87.6055 27.16C87.6055 24.68 87.0855 22.32 86.0455 20.08C85.0455 17.84 83.6855 15.88 81.9655 14.2C80.2455 12.52 78.2455 11.18 75.9655 10.18C73.7255 9.18 71.3655 8.68 68.8855 8.68C66.3655 8.68 63.8855 9.06 61.4455 9.82C59.0455 10.58 56.8855 11.7 54.9655 13.18C53.0855 14.62 51.5455 16.4 50.3455 18.52C49.1855 20.64 48.6055 23.06 48.6055 25.78C48.6055 28.26 49.1455 30.58 50.2255 32.74C51.3055 34.86 52.7255 36.7 54.4855 38.26C56.2455 39.82 58.2655 41.06 60.5455 41.98C62.8655 42.86 65.2255 43.3 67.6255 43.3C70.0255 43.3 72.4055 42.96 74.7655 42.28C77.1655 41.6 79.3055 40.58 81.1855 39.22C83.1055 37.86 84.6455 36.18 85.8055 34.18C87.0055 32.14 87.6055 29.8 87.6055 27.16ZM82.2655 27.04C82.2655 29.08 81.9455 30.96 81.3055 32.68C80.6655 34.36 79.7455 35.82 78.5455 37.06C77.3855 38.26 75.9655 39.2 74.2855 39.88C72.6455 40.52 70.8055 40.84 68.7655 40.84C66.5655 40.84 64.5655 40.42 62.7655 39.58C60.9655 38.7 59.4055 37.54 58.0855 36.1C56.8055 34.62 55.8055 32.92 55.0855 31C54.3655 29.08 54.0055 27.06 54.0055 24.94C54.0055 22.86 54.3455 21 55.0255 19.36C55.7055 17.68 56.6455 16.26 57.8455 15.1C59.0855 13.9 60.5455 12.98 62.2255 12.34C63.9455 11.7 65.8055 11.38 67.8055 11.38C69.9655 11.38 71.9255 11.8 73.6855 12.64C75.4855 13.48 77.0055 14.62 78.2455 16.06C79.5255 17.5 80.5055 19.18 81.1855 21.1C81.9055 22.98 82.2655 24.96 82.2655 27.04ZM118.36 10.96V10C118.36 9.56 118.1 9.38 117.58 9.46C117.34 9.5 117.12 9.54 116.92 9.58C116.72 9.58 116.56 9.62 116.44 9.7H116.5C116.18 9.78 115.86 9.86 115.54 9.94C115.22 10.02 114.96 10.06 114.76 10.06H93.3402C93.1002 10.06 92.7802 10.04 92.3802 10C92.0202 9.92 91.6402 9.84 91.2402 9.76C90.8402 9.68 90.4402 9.6 90.0402 9.52C89.6802 9.4 89.4202 9.28 89.2602 9.16C89.0602 9.08 88.8602 9.08 88.6602 9.16C88.4602 9.2 88.3202 9.32 88.2402 9.52C88.1602 9.76 88.0802 10 88.0002 10.24C87.9602 10.48 87.9002 10.7 87.8202 10.9C87.6202 11.5 87.4202 12.14 87.2202 12.82C87.0202 13.5 86.9202 14.1 86.9202 14.62C86.9202 15.02 86.9402 15.28 86.9802 15.4C87.0602 15.64 87.2602 15.78 87.5802 15.82C87.9002 15.86 88.1402 15.76 88.3002 15.52C88.7402 14.72 89.3202 14.04 90.0402 13.48C90.8002 12.92 91.6202 12.64 92.5002 12.64H100.12V37.9C100.12 38.62 100.08 39.2 100 39.64C99.9202 40.04 99.7802 40.36 99.5802 40.6C99.3802 40.84 99.0802 41.02 98.6802 41.14C98.2802 41.22 97.7802 41.3 97.1802 41.38C96.8202 41.46 96.6402 41.66 96.6402 41.98C96.6802 42.3 96.8802 42.46 97.2402 42.46C99.2802 42.54 101.3 42.6 103.3 42.64C105.34 42.68 107.38 42.7 109.42 42.7C109.74 42.7 109.96 42.62 110.08 42.46C110.2 42.3 110.2 42.12 110.08 41.92C109.92 41.6 109.64 41.4 109.24 41.32C108.88 41.24 108.48 41.18 108.04 41.14C107.8 41.1 107.5 41.06 107.14 41.02C106.82 40.98 106.58 40.92 106.42 40.84H106.36C106.28 40.8 106.2 40.64 106.12 40.36C106.04 40.04 105.96 39.7 105.88 39.34C105.84 38.94 105.78 38.58 105.7 38.26C105.66 37.9 105.64 37.66 105.64 37.54V12.7C105.92 12.78 106.08 12.8 106.12 12.76C106.2 12.72 106.4 12.7 106.72 12.7C107.12 12.7 107.52 12.7 107.92 12.7C108.32 12.7 108.7 12.68 109.06 12.64C109.42 12.6 109.76 12.58 110.08 12.58C110.4 12.58 110.72 12.58 111.04 12.58C112.32 12.58 113.46 12.78 114.46 13.18C115.5 13.54 116.16 14.42 116.44 15.82C116.52 16.1 116.74 16.24 117.1 16.24C117.5 16.24 117.74 16.1 117.82 15.82C118.18 14.22 118.36 12.6 118.36 10.96ZM157.77 45.94V44.86C156.61 44.78 155.51 44.5 154.47 44.02C153.47 43.54 152.69 42.72 152.13 41.56C151.29 39.76 150.43 37.86 149.55 35.86C148.71 33.82 147.87 31.74 147.03 29.62C146.19 27.5 145.37 25.4 144.57 23.32C143.81 21.24 143.07 19.24 142.35 17.32C141.83 15.92 141.27 14.56 140.67 13.24C140.11 11.92 139.59 10.62 139.11 9.34C139.03 9.18 138.95 8.98 138.87 8.74C138.83 8.5 138.73 8.26 138.57 8.02C138.13 6.78 137.63 5.44 137.07 4C136.51 2.56 135.89 1.46 135.21 0.699997C135.05 0.499997 134.87 0.459997 134.67 0.579998C134.47 0.699999 134.33 0.839998 134.25 0.999996C132.77 4.88 131.31 8.74 129.87 12.58C128.43 16.42 127.01 20.28 125.61 24.16C124.65 26.8 123.69 29.52 122.73 32.32C121.81 35.08 120.83 37.78 119.79 40.42C119.59 40.9 119.31 41.42 118.95 41.98C118.63 42.5 118.23 43 117.75 43.48C117.31 43.92 116.83 44.3 116.31 44.62C115.83 44.9 115.33 45.04 114.81 45.04C114.77 45.04 114.65 45.04 114.45 45.04C114.29 45 114.17 45.04 114.09 45.16C113.93 45.32 113.89 45.48 113.97 45.64C114.01 45.72 114.07 45.8 114.15 45.88C114.23 45.96 114.27 46 114.27 46L126.75 46.06C127.15 46.06 127.35 45.92 127.35 45.64C127.39 45.32 127.21 45.12 126.81 45.04C126.21 44.96 125.59 44.82 124.95 44.62C124.35 44.38 124.05 43.92 124.05 43.24C124.05 42.72 124.21 41.82 124.53 40.54C124.89 39.22 125.31 37.84 125.79 36.4C126.27 34.92 126.75 33.5 127.23 32.14C127.75 30.74 128.17 29.68 128.49 28.96H140.31C141.23 31.48 142.17 34 143.13 36.52C144.13 39.04 145.11 41.56 146.07 44.08L143.97 45.16C143.73 45.36 143.67 45.54 143.79 45.7C143.91 45.86 144.13 45.96 144.45 46C145.29 46.08 146.33 46.1 147.57 46.06C148.81 46.02 149.87 46 150.75 46C151.95 46 153.13 46 154.29 46C155.45 46.04 156.61 46.02 157.77 45.94ZM139.11 25.78H129.45C130.33 23.26 131.13 20.86 131.85 18.58C132.61 16.26 133.39 13.84 134.19 11.32L139.11 25.78ZM171.779 41.8C171.459 41.52 171.119 41.36 170.759 41.32C170.439 41.24 170.059 41.2 169.619 41.2C169.419 41.2 169.199 41.18 168.959 41.14C168.719 41.1 168.539 41.06 168.419 41.02C168.339 40.9 168.239 40.68 168.119 40.36C167.999 40.04 167.899 39.7 167.819 39.34C167.739 38.98 167.659 38.64 167.579 38.32C167.539 38 167.519 37.76 167.519 37.6V13.36C167.519 12.4 167.799 11.8 168.359 11.56C168.919 11.32 169.599 11.14 170.399 11.02C170.759 10.94 170.919 10.76 170.879 10.48C170.879 10.2 170.699 10.04 170.339 10C169.419 9.92 168.519 9.92 167.639 10C166.759 10.08 165.859 10.12 164.939 10.12C164.019 10.12 163.079 10.08 162.119 10C161.159 9.92 160.199 9.92 159.239 10C158.839 10.04 158.619 10.22 158.579 10.54C158.579 10.82 158.779 10.98 159.179 11.02C159.899 11.1 160.579 11.32 161.219 11.68C161.899 12 162.239 12.56 162.239 13.36V37.78C162.239 38.1 162.199 38.46 162.119 38.86C162.079 39.26 161.999 39.66 161.879 40.06C161.759 40.46 161.579 40.8 161.339 41.08C161.139 41.32 160.879 41.44 160.559 41.44C160.479 41.44 160.359 41.48 160.199 41.56C160.079 41.6 159.919 41.58 159.719 41.5C159.359 41.42 159.099 41.58 158.939 41.98C158.779 42.34 158.879 42.58 159.239 42.7C159.519 42.82 159.899 42.9 160.379 42.94C160.899 42.94 161.419 42.92 161.939 42.88C162.499 42.84 163.019 42.8 163.499 42.76C163.979 42.72 164.379 42.7 164.699 42.7L166.979 42.76C167.739 42.8 168.459 42.8 169.139 42.76C169.859 42.72 170.579 42.72 171.299 42.76L171.779 41.8ZM212.132 42.46L211.772 41.44C210.572 41.6 209.372 41.4 208.172 40.84C206.972 40.24 205.792 39.46 204.632 38.5C203.472 37.54 202.352 36.46 201.272 35.26C200.192 34.06 199.172 32.88 198.212 31.72C197.612 31 197.012 30.32 196.412 29.68C195.852 29 195.272 28.36 194.672 27.76C195.352 27.16 196.012 26.5 196.652 25.78C197.332 25.02 197.932 24.22 198.452 23.38C199.012 22.54 199.452 21.66 199.772 20.74C200.132 19.82 200.312 18.9 200.312 17.98C200.312 16.14 199.872 14.68 198.992 13.6C198.152 12.52 197.072 11.7 195.752 11.14C194.432 10.58 192.952 10.22 191.312 10.06C189.712 9.9 188.172 9.82 186.692 9.82C186.252 9.82 185.832 9.84 185.432 9.88C185.072 9.88 184.692 9.88 184.292 9.88H183.032C182.392 9.88 181.792 9.88 181.232 9.88C180.672 9.88 180.072 9.86 179.432 9.82C178.952 9.78 178.472 9.76 177.992 9.76C177.512 9.76 177.052 9.76 176.612 9.76H175.712C175.392 9.76 175.172 9.84 175.052 10C174.932 10.16 174.952 10.34 175.112 10.54C175.312 10.86 175.572 11.06 175.892 11.14C176.212 11.22 176.592 11.28 177.032 11.32C177.472 11.36 177.892 11.48 178.292 11.68C178.732 11.88 178.952 12.46 178.952 13.42V37.78C178.952 38.54 178.912 39.16 178.832 39.64C178.792 40.08 178.672 40.42 178.472 40.66C178.272 40.9 177.972 41.08 177.572 41.2C177.212 41.28 176.712 41.36 176.072 41.44C175.712 41.52 175.532 41.72 175.532 42.04C175.572 42.32 175.772 42.48 176.132 42.52C178.172 42.64 180.192 42.72 182.192 42.76C184.232 42.76 186.272 42.76 188.312 42.76C188.672 42.76 188.912 42.64 189.032 42.4C189.152 42.16 189.052 41.96 188.732 41.8C188.412 41.56 188.052 41.42 187.652 41.38C187.292 41.3 186.932 41.24 186.572 41.2C186.372 41.16 186.132 41.14 185.852 41.14C185.612 41.14 185.432 41.1 185.312 41.02C185.232 40.98 185.132 40.82 185.012 40.54C184.932 40.22 184.852 39.88 184.772 39.52C184.692 39.12 184.612 38.76 184.532 38.44C184.492 38.08 184.472 37.82 184.472 37.66V29.74C184.792 29.7 184.992 29.7 185.072 29.74C185.192 29.74 185.412 29.74 185.732 29.74C186.612 29.74 187.572 29.82 188.612 29.98C189.692 30.1 190.572 30.46 191.252 31.06C192.012 31.7 192.732 32.42 193.412 33.22C194.092 34.02 194.772 34.86 195.452 35.74C196.212 36.7 196.992 37.64 197.792 38.56C198.592 39.48 199.452 40.3 200.372 41.02C201.292 41.74 202.312 42.32 203.432 42.76C204.552 43.2 205.812 43.42 207.212 43.42C208.972 43.42 210.612 43.1 212.132 42.46ZM194.672 20.2C194.672 22.24 194.172 23.86 193.172 25.06C192.172 26.26 190.692 26.86 188.732 26.86C188.052 26.86 187.332 26.84 186.572 26.8C185.852 26.76 185.152 26.7 184.472 26.62V12.16C185.352 11.92 186.272 11.8 187.232 11.8C188.352 11.8 189.372 12.04 190.292 12.52C191.212 12.96 191.992 13.56 192.632 14.32C193.312 15.08 193.812 15.98 194.132 17.02C194.492 18.02 194.672 19.08 194.672 20.2Z" fill="#FEE105"/>
</svg>
