<svg width="283" height="38" viewBox="0 0 283 38" fill="none" xmlns="http://www.w3.org/2000/svg">
<path d="M36.2 18.664C36.2 18.12 36.2 17.528 36.2 16.888C36.2 16.216 36.168 15.576 36.104 14.968C36.008 13.784 35.656 12.616 35.048 11.464C34.44 10.312 33.672 9.224 32.744 8.2C31.848 7.176 30.808 6.248 29.624 5.416C28.44 4.552 27.208 3.816 25.928 3.208C24.68 2.568 23.416 2.072 22.136 1.72C20.888 1.368 19.704 1.192 18.584 1.192C17.784 1.192 16.936 1.208 16.04 1.24C15.144 1.24 14.28 1.272 13.448 1.336C12.552 1.4 11.688 1.464 10.856 1.528C10.024 1.56 9.176 1.576 8.312 1.576C7.608 1.576 6.92 1.56 6.248 1.528C5.608 1.496 4.936 1.448 4.232 1.384C3.688 1.352 3.128 1.32 2.552 1.288C1.976 1.256 1.4 1.24 0.824 1.24C0.632 1.24 0.472 1.304 0.344 1.432C0.248 1.56 0.248 1.704 0.344 1.864C0.44 2.12 0.632 2.296 0.92 2.392C1.208 2.456 1.544 2.52 1.928 2.584C2.152 2.616 2.392 2.664 2.648 2.728C2.904 2.792 3.144 2.904 3.368 3.064C3.592 3.224 3.768 3.448 3.896 3.736C4.056 4.024 4.136 4.408 4.136 4.888V31.432C4.136 32.136 4.104 32.744 4.04 33.256C3.976 33.736 3.832 34.152 3.608 34.504C3.416 34.824 3.128 35.096 2.744 35.32C2.36 35.544 1.848 35.72 1.208 35.848C0.888 35.912 0.744 36.072 0.776 36.328C0.84 36.584 1.032 36.712 1.352 36.712C2.632 36.648 3.912 36.664 5.192 36.76C6.504 36.824 7.8 36.904 9.08 37C10.168 37.096 11.272 37.176 12.392 37.24C13.512 37.304 14.632 37.336 15.752 37.336C18.824 37.336 21.608 36.968 24.104 36.232C26.632 35.464 28.792 34.312 30.584 32.776C32.376 31.24 33.752 29.304 34.712 26.968C35.704 24.632 36.2 21.864 36.2 18.664ZM31.208 20.44C31.208 22.872 30.824 25 30.056 26.824C29.288 28.648 28.216 30.168 26.84 31.384C25.496 32.568 23.864 33.464 21.944 34.072C20.024 34.68 17.912 34.984 15.608 34.984C14.744 34.984 13.768 34.904 12.68 34.744C11.624 34.552 10.728 34.2 9.992 33.688C9.832 33.56 9.688 33.32 9.56 32.968C9.464 32.616 9.384 32.248 9.32 31.864C9.256 31.448 9.208 31.032 9.176 30.616C9.176 30.2 9.176 29.864 9.176 29.608V4.216C9.944 3.96 10.712 3.784 11.48 3.688C12.28 3.592 13.096 3.544 13.928 3.544C16.456 3.544 18.776 3.944 20.888 4.744C23.032 5.544 24.856 6.68 26.36 8.152C27.896 9.592 29.08 11.352 29.912 13.432C30.776 15.512 31.208 17.848 31.208 20.44ZM69.8844 21.928C69.8844 19.944 69.4684 18.056 68.6364 16.264C67.8364 14.472 66.7484 12.904 65.3724 11.56C63.9964 10.216 62.3964 9.144 60.5724 8.344C58.7804 7.544 56.8924 7.144 54.9084 7.144C52.8924 7.144 50.9084 7.448 48.9564 8.056C47.0364 8.664 45.3084 9.56 43.7724 10.744C42.2684 11.896 41.0364 13.32 40.0764 15.016C39.1484 16.712 38.6844 18.648 38.6844 20.824C38.6844 22.808 39.1164 24.664 39.9804 26.392C40.8444 28.088 41.9804 29.56 43.3884 30.808C44.7964 32.056 46.4124 33.048 48.2364 33.784C50.0924 34.488 51.9804 34.84 53.9004 34.84C55.8204 34.84 57.7244 34.568 59.6124 34.024C61.5324 33.48 63.2444 32.664 64.7484 31.576C66.2844 30.488 67.5164 29.144 68.4444 27.544C69.4044 25.912 69.8844 24.04 69.8844 21.928ZM65.6124 21.832C65.6124 23.464 65.3564 24.968 64.8444 26.344C64.3324 27.688 63.5964 28.856 62.6364 29.848C61.7084 30.808 60.5724 31.56 59.2284 32.104C57.9164 32.616 56.4444 32.872 54.8124 32.872C53.0524 32.872 51.4524 32.536 50.0124 31.864C48.5724 31.16 47.3244 30.232 46.2684 29.08C45.2444 27.896 44.4444 26.536 43.8684 25C43.2924 23.464 43.0044 21.848 43.0044 20.152C43.0044 18.488 43.2764 17 43.8204 15.688C44.3644 14.344 45.1164 13.208 46.0764 12.28C47.0684 11.32 48.2364 10.584 49.5804 10.072C50.9564 9.56 52.4444 9.304 54.0444 9.304C55.7724 9.304 57.3404 9.64 58.7484 10.312C60.1884 10.984 61.4044 11.896 62.3964 13.048C63.4204 14.2 64.2044 15.544 64.7484 17.08C65.3244 18.584 65.6124 20.168 65.6124 21.832ZM94.4881 8.968V8.2C94.4881 7.848 94.2801 7.704 93.8641 7.768C93.6721 7.8 93.4961 7.832 93.3361 7.864C93.1761 7.864 93.0481 7.896 92.9521 7.96H93.0001C92.7441 8.024 92.4881 8.088 92.2321 8.152C91.9761 8.216 91.7681 8.248 91.6081 8.248H74.4721C74.2801 8.248 74.0241 8.232 73.7041 8.2C73.4161 8.136 73.1121 8.072 72.7921 8.008C72.4721 7.944 72.1521 7.88 71.8321 7.816C71.5441 7.72 71.3361 7.624 71.2081 7.528C71.0481 7.464 70.8881 7.464 70.7281 7.528C70.5681 7.56 70.4561 7.656 70.3921 7.816C70.3281 8.008 70.2641 8.2 70.2001 8.392C70.1681 8.584 70.1201 8.76 70.0561 8.92C69.8961 9.4 69.7361 9.912 69.5761 10.456C69.4161 11 69.3361 11.48 69.3361 11.896C69.3361 12.216 69.3521 12.424 69.3841 12.52C69.4481 12.712 69.6081 12.824 69.8641 12.856C70.1201 12.888 70.3121 12.808 70.4401 12.616C70.7921 11.976 71.2561 11.432 71.8321 10.984C72.4401 10.536 73.0961 10.312 73.8001 10.312H79.8961V30.52C79.8961 31.096 79.8641 31.56 79.8001 31.912C79.7361 32.232 79.6241 32.488 79.4641 32.68C79.3041 32.872 79.0641 33.016 78.7441 33.112C78.4241 33.176 78.0241 33.24 77.5441 33.304C77.2561 33.368 77.1121 33.528 77.1121 33.784C77.1441 34.04 77.3041 34.168 77.5921 34.168C79.2241 34.232 80.8401 34.28 82.4401 34.312C84.0721 34.344 85.7041 34.36 87.3361 34.36C87.5921 34.36 87.7681 34.296 87.8641 34.168C87.9601 34.04 87.9601 33.896 87.8641 33.736C87.7361 33.48 87.5121 33.32 87.1921 33.256C86.9041 33.192 86.5841 33.144 86.2321 33.112C86.0401 33.08 85.8001 33.048 85.5121 33.016C85.2561 32.984 85.0641 32.936 84.9361 32.872H84.8881C84.8241 32.84 84.7601 32.712 84.6961 32.488C84.6321 32.232 84.5681 31.96 84.5041 31.672C84.4721 31.352 84.4241 31.064 84.3601 30.808C84.3281 30.52 84.3121 30.328 84.3121 30.232V10.36C84.5361 10.424 84.6641 10.44 84.6961 10.408C84.7601 10.376 84.9201 10.36 85.1761 10.36C85.4961 10.36 85.8161 10.36 86.1361 10.36C86.4561 10.36 86.7601 10.344 87.0481 10.312C87.3361 10.28 87.6081 10.264 87.8641 10.264C88.1201 10.264 88.3761 10.264 88.6321 10.264C89.6561 10.264 90.5681 10.424 91.3681 10.744C92.2001 11.032 92.7281 11.736 92.9521 12.856C93.0161 13.08 93.1921 13.192 93.4801 13.192C93.8001 13.192 93.9921 13.08 94.0561 12.856C94.3441 11.576 94.4881 10.28 94.4881 8.968ZM126.016 36.952V36.088C125.088 36.024 124.208 35.8 123.376 35.416C122.576 35.032 121.952 34.376 121.504 33.448C120.832 32.008 120.144 30.488 119.44 28.888C118.768 27.256 118.096 25.592 117.424 23.896C116.752 22.2 116.096 20.52 115.456 18.856C114.848 17.192 114.256 15.592 113.68 14.056C113.264 12.936 112.816 11.848 112.336 10.792C111.888 9.736 111.472 8.696 111.088 7.672C111.024 7.544 110.96 7.384 110.896 7.192C110.864 7 110.784 6.808 110.656 6.616C110.304 5.624 109.904 4.552 109.456 3.4C109.008 2.248 108.512 1.368 107.968 0.759997C107.84 0.599998 107.696 0.567998 107.536 0.663999C107.376 0.759999 107.264 0.871999 107.2 0.999997C106.016 4.104 104.848 7.192 103.696 10.264C102.544 13.336 101.408 16.424 100.288 19.528C99.5199 21.64 98.7519 23.816 97.9839 26.056C97.2479 28.264 96.4639 30.424 95.6319 32.536C95.4719 32.92 95.2479 33.336 94.9599 33.784C94.7039 34.2 94.3839 34.6 93.9999 34.984C93.6479 35.336 93.2639 35.64 92.8479 35.896C92.4639 36.12 92.0639 36.232 91.6479 36.232C91.6159 36.232 91.5199 36.232 91.3599 36.232C91.2319 36.2 91.1359 36.232 91.0719 36.328C90.9439 36.456 90.9119 36.584 90.9759 36.712C91.0079 36.776 91.0559 36.84 91.1199 36.904C91.1839 36.968 91.2159 37 91.2159 37L101.2 37.048C101.52 37.048 101.68 36.936 101.68 36.712C101.712 36.456 101.568 36.296 101.248 36.232C100.768 36.168 100.272 36.056 99.7599 35.896C99.2799 35.704 99.0399 35.336 99.0399 34.792C99.0399 34.376 99.1679 33.656 99.4239 32.632C99.7119 31.576 100.048 30.472 100.432 29.32C100.816 28.136 101.2 27 101.584 25.912C102 24.792 102.336 23.944 102.592 23.368H112.048C112.784 25.384 113.536 27.4 114.304 29.416C115.104 31.432 115.888 33.448 116.656 35.464L114.976 36.328C114.784 36.488 114.736 36.632 114.832 36.76C114.928 36.888 115.104 36.968 115.36 37C116.032 37.064 116.864 37.08 117.856 37.048C118.848 37.016 119.696 37 120.4 37C121.36 37 122.304 37 123.232 37C124.16 37.032 125.088 37.016 126.016 36.952ZM111.088 20.824H103.36C104.064 18.808 104.704 16.888 105.28 15.064C105.888 13.208 106.512 11.272 107.152 9.256L111.088 20.824ZM137.223 33.64C136.967 33.416 136.695 33.288 136.407 33.256C136.151 33.192 135.847 33.16 135.495 33.16C135.335 33.16 135.159 33.144 134.967 33.112C134.775 33.08 134.631 33.048 134.535 33.016C134.471 32.92 134.391 32.744 134.295 32.488C134.199 32.232 134.119 31.96 134.055 31.672C133.991 31.384 133.927 31.112 133.863 30.856C133.831 30.6 133.815 30.408 133.815 30.28V10.888C133.815 10.12 134.039 9.64 134.487 9.448C134.935 9.256 135.479 9.112 136.119 9.016C136.407 8.952 136.535 8.808 136.503 8.584C136.503 8.36 136.359 8.232 136.071 8.2C135.335 8.136 134.615 8.136 133.911 8.2C133.207 8.264 132.487 8.296 131.751 8.296C131.015 8.296 130.263 8.264 129.495 8.2C128.727 8.136 127.959 8.136 127.191 8.2C126.871 8.232 126.695 8.376 126.663 8.632C126.663 8.856 126.823 8.984 127.143 9.016C127.719 9.08 128.263 9.256 128.775 9.544C129.319 9.8 129.591 10.248 129.591 10.888V30.424C129.591 30.68 129.559 30.968 129.495 31.288C129.463 31.608 129.399 31.928 129.303 32.248C129.207 32.568 129.063 32.84 128.871 33.064C128.711 33.256 128.503 33.352 128.247 33.352C128.183 33.352 128.087 33.384 127.959 33.448C127.863 33.48 127.735 33.464 127.575 33.4C127.287 33.336 127.079 33.464 126.951 33.784C126.823 34.072 126.903 34.264 127.191 34.36C127.415 34.456 127.719 34.52 128.103 34.552C128.519 34.552 128.935 34.536 129.351 34.504C129.799 34.472 130.215 34.44 130.599 34.408C130.983 34.376 131.303 34.36 131.559 34.36L133.383 34.408C133.991 34.44 134.567 34.44 135.111 34.408C135.687 34.376 136.263 34.376 136.839 34.408L137.223 33.64ZM169.506 34.168L169.218 33.352C168.258 33.48 167.298 33.32 166.338 32.872C165.378 32.392 164.434 31.768 163.506 31C162.578 30.232 161.682 29.368 160.818 28.408C159.954 27.448 159.138 26.504 158.37 25.576C157.89 25 157.41 24.456 156.93 23.944C156.482 23.4 156.018 22.888 155.538 22.408C156.082 21.928 156.61 21.4 157.122 20.824C157.666 20.216 158.146 19.576 158.562 18.904C159.01 18.232 159.362 17.528 159.618 16.792C159.906 16.056 160.05 15.32 160.05 14.584C160.05 13.112 159.698 11.944 158.994 11.08C158.322 10.216 157.458 9.56 156.402 9.112C155.346 8.664 154.162 8.376 152.85 8.248C151.57 8.12 150.338 8.056 149.154 8.056C148.802 8.056 148.466 8.072 148.146 8.104C147.858 8.104 147.554 8.104 147.234 8.104H146.226C145.714 8.104 145.234 8.104 144.786 8.104C144.338 8.104 143.858 8.088 143.346 8.056C142.962 8.024 142.578 8.008 142.194 8.008C141.81 8.008 141.442 8.008 141.09 8.008H140.37C140.114 8.008 139.938 8.072 139.842 8.2C139.746 8.328 139.762 8.472 139.89 8.632C140.05 8.888 140.258 9.048 140.514 9.112C140.77 9.176 141.074 9.224 141.426 9.256C141.778 9.288 142.114 9.384 142.434 9.544C142.786 9.704 142.962 10.168 142.962 10.936V30.424C142.962 31.032 142.93 31.528 142.866 31.912C142.834 32.264 142.738 32.536 142.578 32.728C142.418 32.92 142.178 33.064 141.858 33.16C141.57 33.224 141.17 33.288 140.658 33.352C140.37 33.416 140.226 33.576 140.226 33.832C140.258 34.056 140.418 34.184 140.706 34.216C142.338 34.312 143.954 34.376 145.554 34.408C147.186 34.408 148.818 34.408 150.45 34.408C150.738 34.408 150.93 34.312 151.026 34.12C151.122 33.928 151.042 33.768 150.786 33.64C150.53 33.448 150.242 33.336 149.922 33.304C149.634 33.24 149.346 33.192 149.058 33.16C148.898 33.128 148.706 33.112 148.482 33.112C148.29 33.112 148.146 33.08 148.05 33.016C147.986 32.984 147.906 32.856 147.81 32.632C147.746 32.376 147.682 32.104 147.618 31.816C147.554 31.496 147.49 31.208 147.426 30.952C147.394 30.664 147.378 30.456 147.378 30.328V23.992C147.634 23.96 147.794 23.96 147.858 23.992C147.954 23.992 148.13 23.992 148.386 23.992C149.09 23.992 149.858 24.056 150.69 24.184C151.554 24.28 152.258 24.568 152.802 25.048C153.41 25.56 153.986 26.136 154.53 26.776C155.074 27.416 155.618 28.088 156.162 28.792C156.77 29.56 157.394 30.312 158.034 31.048C158.674 31.784 159.362 32.44 160.098 33.016C160.834 33.592 161.65 34.056 162.546 34.408C163.442 34.76 164.45 34.936 165.57 34.936C166.978 34.936 168.29 34.68 169.506 34.168ZM155.538 16.36C155.538 17.992 155.138 19.288 154.338 20.248C153.538 21.208 152.354 21.688 150.786 21.688C150.242 21.688 149.666 21.672 149.058 21.64C148.482 21.608 147.922 21.56 147.378 21.496V9.928C148.082 9.736 148.818 9.64 149.586 9.64C150.482 9.64 151.298 9.832 152.034 10.216C152.77 10.568 153.394 11.048 153.906 11.656C154.45 12.264 154.85 12.984 155.106 13.816C155.394 14.616 155.538 15.464 155.538 16.36ZM194.317 33.64C194.061 33.416 193.789 33.288 193.501 33.256C193.245 33.192 192.941 33.16 192.589 33.16C192.429 33.16 192.253 33.144 192.061 33.112C191.869 33.08 191.725 33.048 191.629 33.016C191.565 32.92 191.485 32.744 191.389 32.488C191.293 32.232 191.213 31.96 191.149 31.672C191.085 31.384 191.021 31.112 190.957 30.856C190.925 30.6 190.909 30.408 190.909 30.28V10.888C190.909 10.12 191.133 9.64 191.581 9.448C192.029 9.256 192.573 9.112 193.213 9.016C193.501 8.952 193.629 8.808 193.597 8.584C193.597 8.36 193.453 8.232 193.165 8.2C192.429 8.136 191.709 8.136 191.005 8.2C190.301 8.264 189.581 8.296 188.845 8.296C188.109 8.296 187.357 8.264 186.589 8.2C185.821 8.136 185.053 8.136 184.285 8.2C183.965 8.232 183.789 8.376 183.757 8.632C183.757 8.856 183.917 8.984 184.237 9.016C184.813 9.08 185.357 9.256 185.869 9.544C186.413 9.8 186.685 10.248 186.685 10.888V30.424C186.685 30.68 186.653 30.968 186.589 31.288C186.557 31.608 186.493 31.928 186.397 32.248C186.301 32.568 186.157 32.84 185.965 33.064C185.805 33.256 185.597 33.352 185.341 33.352C185.277 33.352 185.181 33.384 185.053 33.448C184.957 33.48 184.829 33.464 184.669 33.4C184.381 33.336 184.173 33.464 184.045 33.784C183.917 34.072 183.997 34.264 184.285 34.36C184.509 34.456 184.813 34.52 185.197 34.552C185.613 34.552 186.029 34.536 186.445 34.504C186.893 34.472 187.309 34.44 187.693 34.408C188.077 34.376 188.397 34.36 188.653 34.36L190.477 34.408C191.085 34.44 191.661 34.44 192.205 34.408C192.781 34.376 193.357 34.376 193.933 34.408L194.317 33.64ZM228.664 8.968L228.472 8.152C227.32 8.088 226.168 8.04 225.016 8.008C223.864 7.944 222.696 7.928 221.512 7.96L219.784 8.008C219.528 8.008 219.352 8.104 219.256 8.296C219.16 8.488 219.224 8.632 219.448 8.728C219.832 8.952 220.328 9.096 220.936 9.16C221.16 9.192 221.384 9.24 221.608 9.304C221.832 9.336 222.04 9.432 222.232 9.592C222.424 9.72 222.584 9.944 222.712 10.264C222.84 10.552 222.904 10.952 222.904 11.464V14.392C222.904 14.904 222.888 15.4 222.856 15.88C222.856 16.36 222.856 16.856 222.856 17.368C222.856 18.168 222.872 19.016 222.904 19.912C222.936 20.808 222.984 21.656 223.048 22.456C223.08 23.448 223.112 24.424 223.144 25.384C223.176 26.312 223.176 27.272 223.144 28.264C219.56 24.744 215.96 21.272 212.344 17.848C208.728 14.392 205.08 10.968 201.4 7.576C201.336 7.512 201.224 7.48 201.064 7.48C200.936 7.448 200.824 7.464 200.728 7.528C200.568 7.656 200.408 7.816 200.248 8.008C200.088 8.168 200.008 8.376 200.008 8.632V31.288C200.008 31.928 199.816 32.424 199.432 32.776C199.048 33.096 198.584 33.224 198.04 33.16H197.464C197.176 33.16 197 33.288 196.936 33.544C196.904 33.8 197.032 33.96 197.32 34.024C197.992 34.184 198.68 34.28 199.384 34.312C200.12 34.344 200.856 34.36 201.592 34.36H203.272C203.816 34.36 204.376 34.36 204.952 34.36C205.528 34.328 206.088 34.328 206.632 34.36C206.92 34.36 207.112 34.264 207.208 34.072C207.304 33.88 207.224 33.72 206.968 33.592C206.68 33.368 206.376 33.24 206.056 33.208C205.736 33.144 205.432 33.08 205.144 33.016C204.92 32.984 204.696 32.936 204.472 32.872C204.28 32.808 204.088 32.696 203.896 32.536C203.736 32.376 203.608 32.136 203.512 31.816C203.416 31.464 203.368 31.016 203.368 30.472C203.368 29.256 203.352 28.056 203.32 26.872C203.288 25.688 203.24 24.504 203.176 23.32C203.112 22.104 203.048 20.904 202.984 19.72C202.952 18.536 202.936 17.336 202.936 16.12C202.936 15.8 202.936 15.496 202.936 15.208C202.936 14.92 202.952 14.632 202.984 14.344L205.48 16.792H205.432C208.504 19.896 211.624 22.984 214.792 26.056C217.992 29.096 221.384 31.96 224.968 34.648C225.16 34.744 225.352 34.776 225.544 34.744C225.736 34.68 225.848 34.552 225.88 34.36C226.072 32.344 226.2 30.344 226.264 28.36C226.328 26.344 226.36 24.312 226.36 22.264C226.36 21.368 226.344 20.376 226.312 19.288C226.312 18.168 226.312 17.144 226.312 16.216C226.28 15.224 226.264 14.248 226.264 13.288C226.264 12.296 226.264 11.288 226.264 10.264C226.264 9.912 226.456 9.656 226.84 9.496C227.224 9.336 227.608 9.208 227.992 9.112H227.944C228.136 9.048 228.296 9.016 228.424 9.016C228.584 8.984 228.664 8.968 228.664 8.968ZM249.146 8.104L248.378 7.672C248.058 7.832 247.722 7.944 247.37 8.008C247.018 8.04 246.666 8.056 246.314 8.056H240.89C239.354 8.056 237.834 8.056 236.33 8.056C234.858 8.056 233.354 8.024 231.818 7.96C231.53 7.96 231.354 8.072 231.29 8.296C231.258 8.52 231.37 8.664 231.626 8.728C231.882 8.856 232.122 8.968 232.346 9.064C232.602 9.128 232.858 9.192 233.114 9.256C233.466 9.32 233.786 9.448 234.074 9.64C234.394 9.832 234.554 10.232 234.554 10.84V30.376C234.554 30.984 234.522 31.464 234.458 31.816C234.426 32.168 234.33 32.44 234.17 32.632C234.01 32.824 233.77 32.968 233.45 33.064C233.162 33.16 232.762 33.24 232.25 33.304C231.962 33.368 231.834 33.528 231.866 33.784C231.898 34.04 232.058 34.168 232.346 34.168C233.178 34.2 233.994 34.232 234.794 34.264C235.626 34.264 236.458 34.264 237.29 34.264C238.09 34.264 238.89 34.264 239.69 34.264C240.49 34.264 241.29 34.232 242.09 34.168C242.41 34.136 242.554 33.992 242.522 33.736C242.49 33.448 242.314 33.304 241.994 33.304C240.778 33.368 239.962 33.176 239.546 32.728C239.162 32.28 238.97 31.448 238.97 30.232V21.352C239.13 21.384 239.274 21.4 239.402 21.4C239.562 21.4 239.722 21.4 239.882 21.4C240.17 21.4 240.442 21.4 240.698 21.4C240.954 21.368 241.21 21.336 241.466 21.304C241.754 21.272 242.026 21.256 242.282 21.256C242.538 21.224 242.794 21.208 243.05 21.208C243.946 21.208 244.698 21.384 245.306 21.736C245.946 22.056 246.25 22.712 246.218 23.704C246.218 23.896 246.314 24.04 246.506 24.136C246.698 24.2 246.89 24.168 247.082 24.04C247.338 23.88 247.53 23.608 247.658 23.224C247.818 22.808 247.93 22.376 247.994 21.928C248.058 21.448 248.09 20.984 248.09 20.536C248.122 20.056 248.138 19.64 248.138 19.288V18.712C248.138 18.52 248.026 18.392 247.802 18.328C247.578 18.232 247.37 18.248 247.178 18.376C247.018 18.536 246.778 18.728 246.458 18.952C246.138 19.144 245.898 19.24 245.738 19.24H238.97V10.456C239.386 10.456 239.706 10.44 239.93 10.408C240.154 10.376 240.49 10.328 240.938 10.264C241.418 10.2 241.898 10.152 242.378 10.12C242.858 10.056 243.322 10.024 243.77 10.024C244.666 10.024 245.434 10.2 246.074 10.552C246.714 10.872 247.05 11.544 247.082 12.568C247.082 12.76 247.178 12.904 247.37 13C247.562 13.064 247.754 13.048 247.946 12.952C248.138 12.824 248.298 12.632 248.426 12.376C248.586 12.088 248.698 11.784 248.762 11.464C248.858 11.112 248.922 10.744 248.954 10.36C249.018 9.976 249.05 9.624 249.05 9.304C249.05 9.208 249.05 9.08 249.05 8.92C249.082 8.76 249.098 8.616 249.098 8.488C249.13 8.328 249.146 8.216 249.146 8.152C249.146 8.056 249.146 8.04 249.146 8.104ZM282.603 21.928C282.603 19.944 282.187 18.056 281.355 16.264C280.555 14.472 279.467 12.904 278.091 11.56C276.715 10.216 275.115 9.144 273.291 8.344C271.499 7.544 269.611 7.144 267.627 7.144C265.611 7.144 263.627 7.448 261.675 8.056C259.755 8.664 258.027 9.56 256.491 10.744C254.987 11.896 253.755 13.32 252.795 15.016C251.867 16.712 251.403 18.648 251.403 20.824C251.403 22.808 251.835 24.664 252.699 26.392C253.563 28.088 254.699 29.56 256.107 30.808C257.515 32.056 259.131 33.048 260.955 33.784C262.811 34.488 264.699 34.84 266.619 34.84C268.539 34.84 270.443 34.568 272.331 34.024C274.251 33.48 275.963 32.664 277.467 31.576C279.003 30.488 280.235 29.144 281.163 27.544C282.123 25.912 282.603 24.04 282.603 21.928ZM278.331 21.832C278.331 23.464 278.075 24.968 277.563 26.344C277.051 27.688 276.315 28.856 275.355 29.848C274.427 30.808 273.291 31.56 271.947 32.104C270.635 32.616 269.163 32.872 267.531 32.872C265.771 32.872 264.171 32.536 262.731 31.864C261.291 31.16 260.043 30.232 258.987 29.08C257.963 27.896 257.163 26.536 256.587 25C256.011 23.464 255.723 21.848 255.723 20.152C255.723 18.488 255.995 17 256.539 15.688C257.083 14.344 257.835 13.208 258.795 12.28C259.787 11.32 260.955 10.584 262.299 10.072C263.675 9.56 265.163 9.304 266.763 9.304C268.491 9.304 270.059 9.64 271.467 10.312C272.907 10.984 274.123 11.896 275.115 13.048C276.139 14.2 276.923 15.544 277.467 17.08C278.043 18.584 278.331 20.168 278.331 21.832Z" fill="#FEE105"/>
</svg>
