<svg width="44" height="44" viewBox="0 0 44 44" fill="none" xmlns="http://www.w3.org/2000/svg">
<path d="M1.67975 0.975166C1.38376 1.10672 0.989119 1.45203 0.808241 1.74801C0.47937 2.29065 0.47937 2.52086 0.47937 22.3353C0.47937 42.1333 0.47937 42.38 0.808241 42.9062C1.48243 44.0079 1.12067 43.975 12.7956 43.975H23.3359L23.303 35.6217L23.2537 27.2848L20.5898 27.2355L17.9095 27.2026V23.9139V20.6252L20.5898 20.5923L23.2537 20.543L23.3523 17.3365C23.4674 13.9162 23.6483 12.9296 24.4376 11.3675C25.3091 9.62446 27.0357 8.29254 29.1898 7.70057C29.9297 7.50325 30.8012 7.43747 32.8731 7.45392C34.3695 7.47036 35.8494 7.53613 36.1618 7.60191L36.7374 7.73346V10.5124V13.3078L34.5175 13.4065C32.0838 13.5051 31.5905 13.6531 30.8506 14.5411C30.3408 15.1495 30.2093 16.0703 30.275 18.652L30.3244 20.543L33.3664 20.5923C35.1917 20.6087 36.4414 20.7074 36.4907 20.8061C36.5894 20.9541 35.9316 26.5613 35.7507 26.9888C35.7014 27.1533 35.0437 27.2026 33.2184 27.2026C31.8701 27.2026 30.6532 27.2519 30.5053 27.3013C30.275 27.3835 30.2422 28.255 30.2422 35.4244C30.2422 39.8477 30.2915 43.5639 30.3408 43.7119C30.423 43.9421 31.0972 43.975 36.244 43.975C41.9828 43.975 42.0322 43.975 42.5912 43.5968C43.8081 42.7911 43.7258 44.3696 43.7258 22.3846C43.7258 1.04094 43.7752 2.09333 42.8215 1.22182L42.3775 0.81073L22.2999 0.777843C5.31377 0.744957 2.12372 0.777843 1.67975 0.975166Z" fill="#FFFCFC"/>
</svg>
