<svg width="22" height="22" viewBox="0 0 22 22" fill="none" xmlns="http://www.w3.org/2000/svg">
<path d="M0.865162 0.488386C0.71709 0.554195 0.519661 0.726946 0.429173 0.875019C0.264648 1.14648 0.264648 1.26165 0.264648 11.1742C0.264648 21.0786 0.264648 21.202 0.429173 21.4652C0.766448 22.0164 0.585471 21.9999 6.42609 21.9999H11.6991L11.6826 17.821L11.658 13.6503L10.3253 13.6257L8.98444 13.6092V11.964V10.3187L10.3253 10.3023L11.658 10.2776L11.7073 8.67347C11.7649 6.96242 11.8554 6.46885 12.2502 5.68736C12.6862 4.81538 13.55 4.14905 14.6276 3.85291C14.9978 3.75419 15.4338 3.72129 16.4703 3.72952C17.2189 3.73774 17.9592 3.77065 18.1155 3.80355L18.4035 3.86936V5.25959V6.65805L17.2929 6.70741C16.0754 6.75676 15.8287 6.8308 15.4585 7.27502C15.2035 7.57939 15.1377 8.04005 15.1706 9.33157L15.1952 10.2776L16.7171 10.3023C17.6302 10.3105 18.2554 10.3598 18.2801 10.4092C18.3294 10.4832 18.0004 13.2884 17.9099 13.5023C17.8852 13.5845 17.5562 13.6092 16.643 13.6092C15.9685 13.6092 15.3598 13.6339 15.2857 13.6586C15.1706 13.6997 15.1541 14.1357 15.1541 17.7223C15.1541 19.9352 15.1788 21.7943 15.2035 21.8683C15.2446 21.9835 15.5819 21.9999 18.1567 21.9999C21.0276 21.9999 21.0523 21.9999 21.332 21.8107C21.9407 21.4077 21.8996 22.1974 21.8996 11.1989C21.8996 0.521292 21.9243 1.04777 21.4472 0.61178L21.2251 0.406124L11.1808 0.389671C2.68316 0.373219 1.08727 0.389671 0.865162 0.488386Z" fill="#FFFCFC"/>
</svg>
