<svg width="45" height="45" viewBox="0 0 45 45" fill="none" xmlns="http://www.w3.org/2000/svg">
<path d="M12.9082 0.135788C10.7212 0.283779 8.59997 0.727753 7.15293 1.35261C4.86728 2.37211 2.74607 4.39466 1.6608 6.61454C0.230209 9.5086 0 11.5969 0 22.3346C0 33.1051 0.213766 35.177 1.67724 38.1203C2.64741 40.0936 4.60419 42.0503 6.57741 43.0205C9.53725 44.484 11.5927 44.6978 22.3632 44.6978C33.1337 44.6978 35.1892 44.484 38.149 43.0205C40.1222 42.0668 42.0625 40.0936 43.0492 38.1203C44.5455 35.0618 44.8086 32.2664 44.6771 20.1969C44.5948 11.416 44.5126 10.4459 43.6576 7.97935C42.3256 4.1809 39.2178 1.51704 35.0412 0.56332C34.3834 0.415329 32.7555 0.218006 31.44 0.135788C28.6775 -0.0450897 15.868 -0.0450897 12.9082 0.135788ZM33.7421 4.62487C37.1788 5.4306 39.2836 7.56826 40.0893 11.0378C40.336 12.0738 40.3689 13.4222 40.3689 22.3346C40.3689 31.3456 40.336 32.5789 40.0893 33.6806C39.2836 37.1502 37.1788 39.2549 33.7092 40.0607C32.6075 40.3073 31.3907 40.3402 22.3632 40.3402C13.1877 40.3402 12.1353 40.3073 10.9843 40.0442C7.53114 39.2385 5.44281 37.1337 4.65352 33.6806C4.39042 32.5789 4.35753 31.3456 4.35753 22.499C4.35753 15.0501 4.40687 12.2711 4.5713 11.4325C5.37703 7.15717 7.95867 4.87152 12.5135 4.41111C13.2699 4.34533 18.1043 4.296 23.2676 4.32889C31.1605 4.36177 32.8213 4.41111 33.7421 4.62487Z" fill="#FFFCFC"/>
</svg>
