<svg width="23" height="23" viewBox="0 0 23 23" fill="none" xmlns="http://www.w3.org/2000/svg">
<path d="M6.45758 0.0677891C5.36349 0.141827 4.30231 0.363934 3.5784 0.676531C2.43496 1.18656 1.37378 2.19838 0.830848 3.30892C0.115167 4.75673 0 5.80146 0 11.1732C0 16.5614 0.106941 17.5979 0.839074 19.0704C1.32442 20.0575 2.30334 21.0364 3.29049 21.5218C4.77121 22.2539 5.79948 22.3608 11.1877 22.3608C16.5758 22.3608 17.6041 22.2539 19.0848 21.5218C20.072 21.0446 21.0427 20.0575 21.5362 19.0704C22.2848 17.5403 22.4164 16.1418 22.3506 10.1038C22.3095 5.71098 22.2684 5.22563 21.8406 3.9917C21.1743 2.09144 19.6195 0.758793 17.5301 0.281672C17.201 0.207636 16.3866 0.108921 15.7285 0.0677891C14.3465 -0.0226994 7.9383 -0.0226994 6.45758 0.0677891ZM16.8802 2.31355C18.5995 2.71663 19.6524 3.78604 20.0555 5.52177C20.1789 6.04002 20.1954 6.71457 20.1954 11.1732C20.1954 15.6812 20.1789 16.2981 20.0555 16.8493C19.6524 18.585 18.5995 19.638 16.8637 20.041C16.3126 20.1644 15.7038 20.1809 11.1877 20.1809C6.59743 20.1809 6.07095 20.1644 5.49511 20.0328C3.76761 19.6297 2.72288 18.5768 2.32802 16.8493C2.1964 16.2981 2.17995 15.6812 2.17995 11.2554C2.17995 7.52897 2.20463 6.13874 2.28689 5.7192C2.68997 3.58039 3.98149 2.43694 6.26015 2.20661C6.63856 2.1737 9.05707 2.14902 11.6401 2.16548C15.5887 2.18193 16.4195 2.20661 16.8802 2.31355Z" fill="#FFFCFC"/>
<path d="M16.6499 4.01648C16.3785 4.12342 15.8849 4.75684 15.8273 5.06944C15.6628 5.91674 16.4525 6.69 17.3162 6.5337C17.5137 6.49257 17.7522 6.3445 18.0237 6.08126C18.4268 5.69463 18.4268 5.6864 18.4268 5.17638C18.4268 4.66635 18.4186 4.64167 18.0648 4.29617C17.7276 3.9589 17.6782 3.93422 17.2669 3.94245C17.0201 3.94245 16.7486 3.97535 16.6499 4.01648Z" fill="#FFFCFC"/>
<path d="M9.83044 5.62875C9.15589 5.79328 8.11116 6.31976 7.57646 6.75575C5.15795 8.77117 4.80422 12.3249 6.77851 14.801C7.46129 15.6647 8.67877 16.4298 9.83044 16.7259C10.5543 16.9069 11.9117 16.8904 12.6685 16.6766C15.1857 15.9773 16.8639 13.7809 16.8639 11.1815C16.8639 10.1943 16.7076 9.51975 16.2716 8.6231C15.9919 8.04726 15.8109 7.79225 15.1857 7.17528C14.5605 6.55832 14.2973 6.36089 13.7214 6.0812C13.3348 5.89199 12.7672 5.68634 12.4546 5.62053C11.7389 5.47246 10.4721 5.47246 9.83044 5.62875ZM12.7754 7.82515C13.5651 8.21179 14.1492 8.80407 14.5441 9.60202C14.8402 10.2025 14.8484 10.2354 14.8484 11.1732C14.8484 12.111 14.8402 12.1357 14.5358 12.7609C14.1328 13.5835 13.598 14.1182 12.7754 14.5213C12.1502 14.8257 12.1256 14.8339 11.196 14.8339C10.2664 14.8339 10.2253 14.8257 9.61656 14.5377C8.80216 14.1429 8.2181 13.5588 7.82324 12.7444C7.53533 12.1357 7.5271 12.0946 7.5271 11.165C7.5271 10.2354 7.53533 10.2108 7.8397 9.59379C8.31682 8.61487 9.02427 7.98968 10.0772 7.61127C10.398 7.49611 10.6695 7.47143 11.3276 7.49611C12.1009 7.52078 12.2243 7.55369 12.7754 7.82515Z" fill="#FFFCFC"/>
</svg>
