<svg width="45" height="45" viewBox="0 0 45 45" fill="none" xmlns="http://www.w3.org/2000/svg">
<path d="M12.9082 0.135788C10.7212 0.283779 8.59997 0.727753 7.15293 1.35261C4.86728 2.37211 2.74607 4.39466 1.6608 6.61454C0.230209 9.5086 0 11.5969 0 22.3346C0 33.1051 0.213766 35.177 1.67724 38.1203C2.64741 40.0936 4.60419 42.0503 6.57741 43.0205C9.53725 44.484 11.5927 44.6978 22.3632 44.6978C33.1337 44.6978 35.1892 44.484 38.149 43.0205C40.1222 42.0668 42.0625 40.0936 43.0492 38.1203C44.5455 35.0618 44.8086 32.2664 44.6771 20.1969C44.5948 11.416 44.5126 10.4459 43.6576 7.97935C42.3256 4.1809 39.2178 1.51704 35.0412 0.56332C34.3834 0.415329 32.7555 0.218006 31.44 0.135788C28.6775 -0.0450897 15.868 -0.0450897 12.9082 0.135788ZM33.7421 4.62487C37.1788 5.4306 39.2836 7.56826 40.0893 11.0378C40.336 12.0738 40.3689 13.4222 40.3689 22.3346C40.3689 31.3456 40.336 32.5789 40.0893 33.6806C39.2836 37.1502 37.1788 39.2549 33.7092 40.0607C32.6075 40.3073 31.3907 40.3402 22.3632 40.3402C13.1877 40.3402 12.1353 40.3073 10.9843 40.0442C7.53114 39.2385 5.44281 37.1337 4.65352 33.6806C4.39042 32.5789 4.35753 31.3456 4.35753 22.499C4.35753 15.0501 4.40687 12.2711 4.5713 11.4325C5.37703 7.15717 7.95867 4.87152 12.5135 4.41111C13.2699 4.34533 18.1043 4.296 23.2676 4.32889C31.1605 4.36177 32.8213 4.41111 33.7421 4.62487Z" fill="#FFFCFC"/>
<path d="M33.2817 8.02888C32.7391 8.24264 31.7525 9.50879 31.6374 10.1336C31.3085 11.8273 32.8871 13.373 34.6136 13.0606C35.0083 12.9784 35.4851 12.6824 36.0278 12.1562C36.8335 11.3834 36.8335 11.3669 36.8335 10.3474C36.8335 9.32791 36.8171 9.27858 36.11 8.58796C35.4358 7.91377 35.3371 7.86444 34.515 7.88088C34.0217 7.88088 33.479 7.94666 33.2817 8.02888Z" fill="#FFFCFC"/>
<path d="M19.65 11.2516C18.3017 11.5805 16.2133 12.6328 15.1445 13.5044C10.3101 17.533 9.60304 24.6366 13.5495 29.5861C14.9143 31.3127 17.3479 32.8419 19.65 33.4339C21.0971 33.7957 23.8102 33.7628 25.323 33.3352C30.3548 31.9375 33.7092 27.5471 33.7092 22.351C33.7092 20.3777 33.3968 19.0294 32.5253 17.237C31.9662 16.086 31.6045 15.5762 30.3548 14.343C29.1051 13.1097 28.5789 12.7151 27.4278 12.156C26.655 11.7778 25.5204 11.3667 24.8955 11.2351C23.4649 10.9392 20.9326 10.9392 19.65 11.2516ZM25.5368 15.642C27.1154 16.4149 28.2829 17.5988 29.0722 19.1938C29.6641 20.3942 29.6806 20.46 29.6806 22.3345C29.6806 24.2091 29.6641 24.2584 29.0557 25.5081C28.25 27.1525 27.1812 28.2213 25.5368 29.027C24.2871 29.6355 24.2378 29.6519 22.3797 29.6519C20.5215 29.6519 20.4393 29.6355 19.2225 29.0599C17.5946 28.2706 16.4271 27.1032 15.6378 25.4752C15.0623 24.2584 15.0458 24.1762 15.0458 22.3181C15.0458 20.46 15.0623 20.4106 15.6707 19.1774C16.6244 17.2206 18.0386 15.9709 20.1433 15.2145C20.7846 14.9843 21.3273 14.9349 22.6428 14.9843C24.1884 15.0336 24.4351 15.0994 25.5368 15.642Z" fill="#FFFCFC"/>
</svg>
