<svg width="25" height="21" viewBox="0 0 25 21" fill="none" xmlns="http://www.w3.org/2000/svg">
<path d="M15.6837 0.540155C14.4086 0.902109 13.2076 1.89748 12.6565 3.01625C12.204 3.93758 12.0888 4.47229 12.1217 5.52524L12.1464 6.43013L11.4719 6.41368C10.2133 6.38077 8.29656 5.87074 6.79938 5.16329C5.13769 4.3818 3.95311 3.51805 2.66982 2.16072C2.25851 1.72473 1.88833 1.371 1.83897 1.371C1.74849 1.371 1.46879 2.04555 1.32072 2.60494C1.27136 2.80237 1.23023 3.32062 1.23023 3.75661C1.23846 5.16329 1.74849 6.33141 2.80144 7.32679C3.41841 7.90262 3.3855 8.03424 2.66982 7.86972C2.40658 7.81213 1.99527 7.68051 1.74849 7.57357C1.50993 7.46663 1.27959 7.37614 1.23846 7.37614C1.02458 7.37614 1.30427 8.74169 1.658 9.4656C2.20915 10.5761 3.33615 11.6044 4.3891 11.9417C5.28576 12.2378 5.09656 12.4024 3.90375 12.3777C3.43486 12.3695 3.03178 12.3859 3.0071 12.4188C2.97419 12.4517 3.07291 12.715 3.21275 13.0111C3.5418 13.6692 4.32329 14.5247 4.98139 14.9607C5.48319 15.2815 6.5855 15.6846 6.98859 15.6846C7.11198 15.6846 7.26828 15.7258 7.33409 15.7669C7.52329 15.8985 7.12843 16.1782 5.97676 16.754C4.46314 17.5108 2.82612 17.8646 1.17265 17.807C0.646172 17.7905 0.39116 17.8152 0.366481 17.8728C0.317124 18.0044 2.10221 18.9011 3.09759 19.2466C4.89913 19.8635 6.44566 20.0939 8.4035 20.0198C11.2086 19.9129 13.5038 19.1972 15.659 17.7494C18.4477 15.8738 20.5372 12.9453 21.4503 9.63013C21.7711 8.44555 21.9027 7.59825 21.9521 6.33141L22.0014 5.15506L22.4456 4.80956C22.8981 4.46406 23.8194 3.50982 24.1402 3.06561C24.3048 2.83527 24.3048 2.82705 24.1485 2.88463C23.2929 3.21368 21.6724 3.54272 21.7382 3.36997C21.7546 3.32062 21.985 3.10674 22.24 2.90108C22.7336 2.498 23.367 1.6836 23.5809 1.17357C23.6467 1.00905 23.696 0.87743 23.6796 0.87743C23.6549 0.87743 23.3752 1.00082 23.0379 1.15712C22.3387 1.47795 21.1541 1.86458 20.8662 1.86458C20.7593 1.86458 20.422 1.67537 20.1094 1.43681C19.4924 0.976145 18.9001 0.671776 18.2503 0.499025C17.658 0.342726 16.2924 0.359179 15.6837 0.540155Z" fill="#FFFCFC"/>
</svg>
