<svg width="49" height="41" viewBox="0 0 49 41" fill="none" xmlns="http://www.w3.org/2000/svg">
<path d="M31.3267 1.07896C28.778 1.80247 26.3772 3.79214 25.2755 6.02846C24.3711 7.87014 24.1409 8.93896 24.2067 11.0437L24.256 12.8525L22.9076 12.8196C20.3918 12.7539 16.5604 11.7344 13.5677 10.3202C10.2461 8.75808 7.87823 7.03152 5.31304 4.31833C4.49086 3.44683 3.7509 2.73975 3.65224 2.73975C3.47136 2.73975 2.91228 4.08812 2.6163 5.20628C2.51764 5.60093 2.43542 6.63687 2.43542 7.50838C2.45187 10.3202 3.47136 12.6552 5.57614 14.6449C6.8094 15.7959 6.74363 16.059 5.31304 15.7301C4.78685 15.615 3.96467 15.3519 3.47136 15.1382C2.9945 14.9244 2.53408 14.7435 2.45187 14.7435C2.02433 14.7435 2.58341 17.4732 3.29049 18.9202C4.3922 21.1401 6.64497 23.1955 8.74974 23.8697C10.5421 24.4617 10.1639 24.7905 7.77957 24.7412C6.84229 24.7248 6.03655 24.7576 5.98722 24.8234C5.92145 24.8892 6.11877 25.4154 6.39831 26.0073C7.05605 27.3228 8.61819 29.033 9.93367 29.9045C10.9367 30.5458 13.1402 31.3515 13.9459 31.3515C14.1925 31.3515 14.505 31.4337 14.6365 31.5159C15.0147 31.779 14.2254 32.3381 11.9233 33.4892C8.89773 35.002 5.62547 35.709 2.32032 35.5939C1.26793 35.561 0.758183 35.6104 0.708852 35.7255C0.610191 35.9886 4.17844 37.7809 6.1681 38.4715C9.76924 39.7048 12.8606 40.1652 16.7742 40.0172C22.3814 39.8035 26.9692 38.3729 31.2774 35.4788C36.8517 31.7297 41.0284 25.8758 42.8536 19.2491C43.4949 16.8812 43.758 15.1875 43.8567 12.6552L43.9553 10.3038L44.8433 9.61315C45.7477 8.92252 47.5894 7.01507 48.2306 6.12712C48.5595 5.6667 48.5595 5.65026 48.2471 5.76536C46.537 6.4231 43.2976 7.08084 43.4291 6.73553C43.462 6.63687 43.9224 6.20934 44.4322 5.79825C45.4188 4.99252 46.685 3.36461 47.1125 2.34511C47.244 2.01624 47.3427 1.75314 47.3098 1.75314C47.2605 1.75314 46.7014 1.99979 46.0272 2.31222C44.6295 2.95352 42.2616 3.72636 41.6861 3.72636C41.4724 3.72636 40.7982 3.34816 40.1733 2.8713C38.9401 1.95047 37.7561 1.34205 36.4571 0.996738C35.2731 0.684311 32.5435 0.717201 31.3267 1.07896Z" fill="#FFFCFC"/>
</svg>
